<svg width="26" height="26" viewBox="0 0 26 26" fill="none" xmlns="http://www.w3.org/2000/svg">
<path fill-rule="evenodd" clip-rule="evenodd" d="M13 2.375C7.14125 2.375 2.375 7.14125 2.375 13C2.375 18.8587 7.14125 23.625 13 23.625C18.8587 23.625 23.625 18.8587 23.625 13C23.625 7.14125 18.8587 2.375 13 2.375ZM13 25.5C6.1075 25.5 0.5 19.8925 0.5 13C0.5 6.1075 6.1075 0.5 13 0.5C19.8925 0.5 25.5 6.1075 25.5 13C25.5 19.8925 19.8925 25.5 13 25.5Z" fill="#FC9F17"/>
<path fill-rule="evenodd" clip-rule="evenodd" d="M11.1982 18.2758C10.9582 18.2758 10.7169 18.1846 10.5344 17.9996C10.1694 17.6321 10.1707 17.0396 10.5369 16.6746L14.2269 12.9996L10.5369 9.32582C10.1707 8.96082 10.1694 8.36707 10.5344 7.99957C10.8994 7.63082 11.4919 7.63332 11.8594 7.99707L16.2169 12.3358C16.3932 12.5121 16.4919 12.7508 16.4919 12.9996C16.4919 13.2496 16.3932 13.4883 16.2169 13.6646L11.8594 18.0021C11.6769 18.1846 11.4369 18.2758 11.1982 18.2758Z" fill="#FC9F17"/>
</svg>
