<svg width="26" height="26" viewBox="0 0 26 26" fill="none" xmlns="http://www.w3.org/2000/svg">
<path fill-rule="evenodd" clip-rule="evenodd" d="M13 2.375C7.14125 2.375 2.375 7.14125 2.375 13C2.375 18.8587 7.14125 23.625 13 23.625C18.8587 23.625 23.625 18.8587 23.625 13C23.625 7.14125 18.8587 2.375 13 2.375ZM13 25.5C6.1075 25.5 0.5 19.8925 0.5 13C0.5 6.1075 6.1075 0.5 13 0.5C19.8925 0.5 25.5 6.1075 25.5 13C25.5 19.8925 19.8925 25.5 13 25.5Z" fill="#562380"/>
<path fill-rule="evenodd" clip-rule="evenodd" d="M14.8031 18.2758C14.5643 18.2758 14.3243 18.1846 14.1418 18.0021L9.78306 13.6646C9.60681 13.4883 9.50806 13.2496 9.50806 12.9996C9.50806 12.7508 9.60681 12.5121 9.78306 12.3358L14.1418 7.99707C14.5081 7.63207 15.1006 7.63207 15.4668 7.99957C15.8331 8.36707 15.8306 8.96082 15.4643 9.32582L11.7743 12.9996L15.4643 16.6746C15.8306 17.0396 15.8331 17.6321 15.4668 17.9996C15.2843 18.1846 15.0431 18.2758 14.8031 18.2758Z" fill="#562380"/>
</svg>
