<svg width="78" height="24" viewBox="0 0 78 24" fill="none" xmlns="http://www.w3.org/2000/svg">
<path d="M0.04 18V0.959999H7.144C7.896 0.959999 8.584 1.12 9.208 1.44C9.832 1.744 10.376 2.16 10.84 2.688C11.304 3.2 11.664 3.784 11.92 4.44C12.176 5.08 12.304 5.736 12.304 6.408C12.304 7.336 12.096 8.224 11.68 9.072C11.264 9.904 10.68 10.584 9.928 11.112C9.176 11.624 8.296 11.88 7.288 11.88H2.2V18H0.04ZM2.2 9.96H7.168C7.76 9.96 8.272 9.8 8.704 9.48C9.152 9.16 9.496 8.728 9.736 8.184C9.992 7.64 10.12 7.048 10.12 6.408C10.12 5.736 9.976 5.136 9.688 4.608C9.4 4.064 9.024 3.64 8.56 3.336C8.096 3.032 7.584 2.88 7.024 2.88H2.2V9.96ZM19.9668 18.24C19.0228 18.24 18.1588 18.072 17.3748 17.736C16.6068 17.384 15.9348 16.912 15.3588 16.32C14.7988 15.712 14.3588 15.016 14.0388 14.232C13.7348 13.448 13.5828 12.616 13.5828 11.736C13.5828 10.552 13.8548 9.472 14.3988 8.496C14.9428 7.52 15.6948 6.736 16.6548 6.144C17.6308 5.552 18.7428 5.256 19.9908 5.256C21.2548 5.256 22.3508 5.56 23.2788 6.168C24.2228 6.76 24.9508 7.544 25.4628 8.52C25.9908 9.48 26.2548 10.52 26.2548 11.64C26.2548 11.8 26.2468 11.96 26.2308 12.12C26.2308 12.264 26.2228 12.376 26.2068 12.456H15.8148C15.8788 13.272 16.1028 14 16.4868 14.64C16.8868 15.264 17.3988 15.76 18.0228 16.128C18.6468 16.48 19.3188 16.656 20.0388 16.656C20.8068 16.656 21.5268 16.464 22.1988 16.08C22.8868 15.696 23.3588 15.192 23.6148 14.568L25.4388 15.072C25.1668 15.68 24.7588 16.224 24.2148 16.704C23.6868 17.184 23.0548 17.56 22.3188 17.832C21.5988 18.104 20.8148 18.24 19.9668 18.24ZM15.7428 10.992H24.2868C24.2228 10.176 23.9908 9.456 23.5908 8.832C23.1908 8.208 22.6788 7.72 22.0548 7.368C21.4308 7.016 20.7428 6.84 19.9908 6.84C19.2548 6.84 18.5748 7.016 17.9508 7.368C17.3268 7.72 16.8148 8.208 16.4148 8.832C16.0308 9.456 15.8068 10.176 15.7428 10.992ZM34.9653 17.376C34.7893 17.456 34.5493 17.56 34.2453 17.688C33.9413 17.816 33.5893 17.928 33.1893 18.024C32.7893 18.12 32.3653 18.168 31.9173 18.168C31.4053 18.168 30.9333 18.08 30.5013 17.904C30.0693 17.712 29.7253 17.424 29.4693 17.04C29.2133 16.64 29.0853 16.144 29.0853 15.552V7.128H27.3813V5.472H29.0853V1.296H31.1973V5.472H34.0053V7.128H31.1973V14.904C31.2293 15.352 31.3813 15.688 31.6533 15.912C31.9253 16.12 32.2453 16.224 32.6133 16.224C33.0293 16.224 33.4133 16.152 33.7653 16.008C34.1173 15.864 34.3493 15.76 34.4613 15.696L34.9653 17.376ZM37.2588 18V0.959999H43.1628C44.9868 0.959999 46.5068 1.344 47.7228 2.112C48.9548 2.864 49.8748 3.888 50.4828 5.184C51.0908 6.464 51.3948 7.888 51.3948 9.456C51.3948 11.184 51.0588 12.688 50.3868 13.968C49.7148 15.248 48.7628 16.24 47.5308 16.944C46.2988 17.648 44.8428 18 43.1628 18H37.2588ZM49.2108 9.456C49.2108 8.176 48.9708 7.04 48.4908 6.048C48.0268 5.056 47.3468 4.28 46.4508 3.72C45.5548 3.16 44.4588 2.88 43.1628 2.88H39.4188V16.08H43.1628C44.4748 16.08 45.5788 15.792 46.4748 15.216C47.3708 14.624 48.0508 13.832 48.5148 12.84C48.9788 11.832 49.2108 10.704 49.2108 9.456ZM53.0013 14.376C53.0013 13.576 53.2253 12.888 53.6733 12.312C54.1373 11.72 54.7693 11.264 55.5693 10.944C56.3693 10.624 57.2973 10.464 58.3533 10.464C58.9133 10.464 59.5053 10.512 60.1293 10.608C60.7533 10.688 61.3053 10.816 61.7853 10.992V10.08C61.7853 9.12 61.4973 8.368 60.9213 7.824C60.3453 7.264 59.5293 6.984 58.4733 6.984C57.7853 6.984 57.1213 7.112 56.4813 7.368C55.8573 7.608 55.1933 7.96 54.4893 8.424L53.7213 6.936C54.5373 6.376 55.3533 5.96 56.1693 5.688C56.9853 5.4 57.8333 5.256 58.7133 5.256C60.3133 5.256 61.5773 5.704 62.5053 6.6C63.4333 7.48 63.8973 8.712 63.8973 10.296V15.6C63.8973 15.856 63.9453 16.048 64.0413 16.176C64.1533 16.288 64.3293 16.352 64.5693 16.368V18C64.3613 18.032 64.1773 18.056 64.0173 18.072C63.8733 18.088 63.7533 18.096 63.6573 18.096C63.1613 18.096 62.7853 17.96 62.5293 17.688C62.2893 17.416 62.1533 17.128 62.1213 16.824L62.0733 16.032C61.5293 16.736 60.8173 17.28 59.9373 17.664C59.0573 18.048 58.1853 18.24 57.3213 18.24C56.4893 18.24 55.7453 18.072 55.0893 17.736C54.4333 17.384 53.9213 16.92 53.5533 16.344C53.1853 15.752 53.0013 15.096 53.0013 14.376ZM61.1613 15.264C61.3533 15.04 61.5053 14.816 61.6173 14.592C61.7293 14.352 61.7853 14.152 61.7853 13.992V12.432C61.2893 12.24 60.7693 12.096 60.2253 12C59.6813 11.888 59.1453 11.832 58.6172 11.832C57.5453 11.832 56.6733 12.048 56.0013 12.48C55.3453 12.896 55.0173 13.472 55.0173 14.208C55.0173 14.608 55.1213 15 55.3293 15.384C55.5533 15.752 55.8733 16.056 56.2893 16.296C56.7213 16.536 57.2493 16.656 57.8733 16.656C58.5293 16.656 59.1533 16.528 59.7453 16.272C60.3373 16 60.8093 15.664 61.1613 15.264ZM67.4519 21.408C67.6599 21.424 67.8679 21.44 68.0759 21.456C68.2839 21.488 68.4439 21.504 68.5559 21.504C68.8119 21.504 69.0359 21.416 69.2279 21.24C69.4199 21.064 69.6279 20.72 69.8519 20.208C70.0919 19.712 70.3959 18.976 70.7639 18L65.4599 5.472H67.6919L71.9159 15.864L75.7319 5.472H77.8199L71.7239 21.288C71.5799 21.656 71.3639 22 71.0759 22.32C70.8039 22.656 70.4519 22.92 70.0199 23.112C69.5879 23.304 69.0679 23.4 68.4599 23.4C68.3159 23.4 68.1639 23.392 68.0039 23.376C67.8599 23.36 67.6759 23.328 67.4519 23.28V21.408Z" fill="black"/>
</svg>
