<svg width="19" height="20" viewBox="0 0 19 20" fill="none" xmlns="http://www.w3.org/2000/svg">
<path fill-rule="evenodd" clip-rule="evenodd" d="M8.57042 1.4821C8.83012 1.26193 9.15953 1.14108 9.5 1.14108C9.84047 1.14108 10.1699 1.26193 10.4296 1.4821L17.6171 7.57997C17.7762 7.7149 17.9041 7.88286 17.9918 8.07218C18.0795 8.2615 18.125 8.46765 18.125 8.67631V17.6875C18.125 18.0688 17.9735 18.4344 17.704 18.704C17.4344 18.9736 17.0687 19.125 16.6875 19.125H11.1771C10.9865 19.125 10.8036 19.0493 10.6689 18.9145C10.5341 18.7797 10.4583 18.5969 10.4583 18.4063V12.4167H8.54167V18.4063C8.54167 18.5969 8.46594 18.7797 8.33115 18.9145C8.19636 19.0493 8.01354 19.125 7.82292 19.125H2.3125C1.93125 19.125 1.56562 18.9736 1.29603 18.704C1.02645 18.4344 0.875 18.0688 0.875 17.6875V8.67631C0.875 8.25464 1.06092 7.8531 1.38292 7.57997L8.57042 1.4821ZM9.5 2.57843L2.3125 8.67631V17.6875H7.10417V11.6979C7.10417 11.5073 7.17989 11.3245 7.31468 11.1897C7.44948 11.0549 7.63229 10.9792 7.82292 10.9792H11.1771C11.3677 10.9792 11.5505 11.0549 11.6853 11.1897C11.8201 11.3245 11.8958 11.5073 11.8958 11.6979V17.6875H16.6875V8.67631L9.5 2.57843Z" fill="black" stroke="black" stroke-width="0.5"/>
</svg>
